<svg width="18" height="20" viewBox="0 0 18 20" fill="none" xmlns="http://www.w3.org/2000/svg">
<path d="M4.2 15.4C3.20597 14.6553 2.39921 13.6891 1.84374 12.5781C1.28827 11.4672 0.999379 10.2421 1 9C1 4.5816 4.5816 1 9 1C13.4184 1 17 4.5816 17 9C17.0006 10.2421 16.7117 11.4672 16.1563 12.5781C15.6008 13.6891 14.794 14.6553 13.8 15.4" stroke="#F5F5F5" stroke-width="1.25" stroke-linecap="round" stroke-linejoin="round"/>
<path d="M4.2 15.4C3.20597 14.6553 2.39921 13.6891 1.84374 12.5781C1.28827 11.4672 0.999379 10.2421 1 9C1 4.5816 4.5816 1 9 1C13.4184 1 17 4.5816 17 9C17.0006 10.2421 16.7117 11.4672 16.1563 12.5781C15.6008 13.6891 14.794 14.6553 13.8 15.4" stroke="#F5F5F5" stroke-width="1.25" stroke-linecap="round" stroke-linejoin="round"/>
<path d="M5.42162 12.2003C4.80385 11.5097 4.39919 10.655 4.25649 9.73943C4.11378 8.82386 4.23913 7.88657 4.61741 7.04068C4.99568 6.19479 5.61071 5.47647 6.38825 4.97244C7.16579 4.4684 8.0726 4.2002 8.99922 4.2002C9.92584 4.2002 10.8327 4.4684 11.6102 4.97244C12.3877 5.47647 13.0028 6.19479 13.381 7.04068C13.7593 7.88657 13.8847 8.82386 13.742 9.73943C13.5993 10.655 13.1946 11.5097 12.5768 12.2003" stroke="#F5F5F5" stroke-width="1.25" stroke-linecap="round" stroke-linejoin="round"/>
<path fill-rule="evenodd" clip-rule="evenodd" d="M6.80078 8.9998C6.80078 8.41633 7.03257 7.85675 7.44515 7.44417C7.85773 7.03159 8.4173 6.7998 9.00078 6.7998C9.58426 6.7998 10.1438 7.03159 10.5564 7.44417C10.969 7.85675 11.2008 8.41633 11.2008 8.9998C11.2008 9.58328 10.969 10.1429 10.5564 10.5554C10.1438 10.968 9.58426 11.1998 9.00078 11.1998C8.4173 11.1998 7.85773 10.968 7.44515 10.5554C7.03257 10.1429 6.80078 9.58328 6.80078 8.9998Z" fill="#F5F5F5"/>
<path d="M11.4619 17.3895C11.3761 17.9031 11.1109 18.3697 10.7135 18.7062C10.3161 19.0426 9.81221 19.2272 9.29148 19.2271H8.80268C8.28195 19.2272 7.77807 19.0426 7.38066 18.7062C6.98324 18.3697 6.71806 17.9031 6.63228 17.3895L6.22508 14.9463C6.03308 13.7959 6.94428 12.9079 7.82668 12.3199C8.92908 11.5847 9.30828 11.6719 10.2667 12.3119C11.1131 12.8751 12.0603 13.7959 11.8683 14.9463L11.4619 17.3895Z" fill="#F5F5F5"/>
</svg>
