<svg width="17" height="18" viewBox="0 0 17 18" fill="none" xmlns="http://www.w3.org/2000/svg">
<path d="M16.8269 16.3317L11.1938 7.71429L16.7087 1.80534C16.9022 1.59286 17.0019 1.31465 16.9863 1.03102C16.9706 0.747386 16.8408 0.481201 16.625 0.290171C16.4092 0.0991405 16.1248 -0.0013384 15.8335 0.0105186C15.5421 0.0223756 15.2673 0.145613 15.0686 0.353512L9.96471 5.8262L6.4842 0.500134C6.38418 0.346942 6.2461 0.220799 6.08275 0.133379C5.9194 0.0459583 5.73605 8.37088e-05 5.54967 0H1.11708C0.918575 8.91283e-05 0.723737 0.0521171 0.552934 0.150645C0.38213 0.249174 0.241633 0.390585 0.146128 0.560097C0.0506236 0.729609 0.0036177 0.920999 0.0100239 1.11426C0.0164301 1.30752 0.0760133 1.49556 0.182545 1.65872L5.81562 10.2761L0.297054 16.1851C0.197136 16.2896 0.119515 16.4125 0.0686892 16.5464C0.0178637 16.6804 -0.00515547 16.8229 0.000965983 16.9656C0.00708743 17.1084 0.0422278 17.2485 0.10435 17.3779C0.166473 17.5072 0.254342 17.6233 0.362864 17.7194C0.471387 17.8155 0.598406 17.8896 0.736557 17.9375C0.874709 17.9854 1.02125 18.0061 1.16768 17.9984C1.31411 17.9908 1.45752 17.9549 1.5896 17.8928C1.72167 17.8307 1.83979 17.7438 1.93711 17.6369L7.04474 12.1642L10.5252 17.4903C10.6253 17.6435 10.7633 17.7696 10.9267 17.857C11.09 17.9445 11.2734 17.9903 11.4598 17.9904H15.8924C16.0909 17.9903 16.2857 17.9383 16.4565 17.8398C16.6273 17.7412 16.7678 17.5998 16.8633 17.4303C16.9588 17.2608 17.0058 17.0694 16.9994 16.8762C16.993 16.6829 16.9334 16.4949 16.8269 16.3317ZM12.0683 15.8316L3.13575 2.15885H4.94111L13.8737 15.8316H12.0683Z" fill="#F5F5F5"/>
</svg>
