<svg width="22" height="22" viewBox="0 0 22 22" fill="none" xmlns="http://www.w3.org/2000/svg">
<path d="M10.789 1.03267C10.9173 0.628288 11.6348 0.645035 11.74 1.05615C12.2365 2.98411 13.1851 5.87481 14.7085 7.48361C16.2329 9.08868 19.0722 10.1925 20.9706 10.7889C21.375 10.9172 21.3545 11.6337 20.9434 11.7389C19.0154 12.2355 16.1285 13.185 14.5197 14.7084C12.9109 16.2318 11.8108 19.0722 11.2143 20.9705C11.086 21.3749 10.3659 21.3534 10.2643 20.9433C9.7678 19.0154 8.81825 16.1284 7.29113 14.5186C5.76774 12.9098 2.92739 11.8097 1.03275 11.2143C0.628365 11.086 0.646102 10.3648 1.05622 10.2633C2.98418 9.76673 5.87489 8.81817 7.48468 7.29106C9.08975 5.76667 10.1936 2.92731 10.789 1.03267Z" fill="#F5F5F5"/>
</svg>
